/* XPM */
static char *fadd49c62aa64a47cae4e1341789225eXiCF4Y1WpCzWumvV[] = {
/* columns rows colors chars-per-pixel */
"64 64 123 2 ",
"   c #000000",
".  c #060B04",
"X  c #0F180B",
"o  c #10180C",
"O  c #1A360A",
"+  c #1D3A0D",
"@  c #1B2513",
"#  c #1E2B16",
"$  c #1E2C18",
"%  c #1E3B11",
"&  c #213D0F",
"*  c #202E19",
"=  c #223E12",
"-  c #2C3C21",
";  c #20400F",
":  c #254215",
">  c #284417",
",  c #2B4917",
"<  c #264219",
"1  c #2A461A",
"2  c #2D4A1D",
"3  c #314E1F",
"4  c #32511E",
"5  c #2F4B20",
"6  c #334727",
"7  c #324D22",
"8  c #344728",
"9  c #344F28",
"0  c #3A4E2E",
"q  c #355225",
"w  c #395726",
"e  c #375824",
"r  c #395A26",
"t  c #375328",
"y  c #39552A",
"u  c #3D5A2C",
"i  c #3F5B31",
"p  c #3F612C",
"a  c #415E2E",
"s  c #405633",
"d  c #415D33",
"f  c #44632E",
"g  c #456334",
"h  c #486635",
"j  c #476833",
"k  c #4A6A36",
"l  c #47633A",
"z  c #49653A",
"x  c #4C6C3B",
"c  c #506E3F",
"v  c #4E7039",
"b  c #51733D",
"n  c #54783E",
"m  c #4E6C41",
"M  c #526D42",
"N  c #547343",
"B  c #587345",
"V  c #567943",
"C  c #5A7B45",
"Z  c #567648",
"A  c #5B774A",
"S  c #5C7D4A",
"D  c #617E4F",
"F  c #627F50",
"G  c #5D8146",
"H  c #5E814B",
"J  c #62844D",
"K  c #65894E",
"L  c #69894F",
"P  c #658552",
"I  c #688653",
"U  c #668953",
"Y  c #6A8B54",
"T  c #6D8E5A",
"R  c #6D9156",
"E  c #6E915B",
"W  c #72955C",
"Q  c #75995E",
"!  c #789A5F",
"~  c #729261",
"^  c #769A61",
"/  c #799D62",
"(  c #7D9F69",
")  c #7DA266",
"_  c #7EA269",
"`  c #80A567",
"'  c #82AA67",
"]  c #81A66B",
"[  c #84AB6C",
"{  c #89AE6F",
"}  c #8BB46E",
"|  c #84A670",
" . c #86AC71",
".. c #89AE73",
"X. c #8CB374",
"o. c #8EB578",
"O. c #90B477",
"+. c #90B877",
"@. c #91B679",
"#. c #95BC7C",
"$. c #98BE7F",
"%. c #97C07F",
"&. c #99C27E",
"*. c #97BE80",
"=. c #99BF81",
"-. c #9CC482",
";. c #9FC983",
":. c #9FC788",
">. c #A0C785",
",. c #A1CA86",
"<. c #A0C788",
"1. c #A5CE8B",
"2. c #A8CF8E",
"3. c #A7D08C",
"4. c #A9D28E",
"5. c #ACD88F",
"6. c #ACD591",
"7. c #AFD992",
"8. c #B0D693",
"9. c #B1DC95",
"0. c #B5DE99",
"q. c #B7E097",
"w. c #B6E09A",
/* pixels */
"                                        .       . # 0 M I ^ { } } { ^ I N 0 # .         .                                       ",
"                                  .       X 0 P X.>.4.7.8.7.5.4.7.4.7.7.7.4.>.X.P 0 X       .                                   ",
"                                      - Y %.7.9.7.4.3.1.1.1.3.1.1.3.1.1.1.1.3.5.7.7.-.Y -                                       ",
"                                  6 ) 4.9.6.1.1.1.3.3.3.3.3.3.3.3.3.3.3.3.3.3.3.1.1.6.7.4.) 8                                   ",
"                              * ^ 7.7.3.1.3.3.3.1.3.3.3.3.3.3.3.3.3.3.3.3.3.3.3.3.3.3.1.3.7.5.^ *                               ",
"                          . N 3.7.1.1.3.3.3.3.3.3.3.3.3.3.3.3.3.3.3.3.3.3.3.3.3.3.3.3.3.3.1.3.7.1.N .   .                       ",
"                        @ ` 9.3.1.3.3.3.3.3.3.3.3.3.3.3.3.3.3.3.3.3.3.3.3.3.3.3.3.3.3.3.3.3.3.3.3.9.` @                         ",
"                      6 ;.5.1.3.3.3.3.3.3.3.3.3.4.3.3.3.1.3.3.1.3.3.1.3.3.1.1.3.3.3.3.3.3.3.3.3.1.1.7.&.6                       ",
"                    s 3.5.1.1.3.3.3.3.3.3.3.3.3.$.1.3.3.] ;.4.#.X.1.' 2.7.X.$.4.4.-.;.2.3.3.3.3.3.1.1.5.3.s                     ",
"                  z 5.4.1.1.3.3.3.3.3.3.3.1.3.6.W #.4.3.U #.q.! Q >.J 3.4.U X.6.4.R -.6.:.1.3.3.3.2.1.1.3.7.x                   ",
"                d 5.2.1.3.3.3.3.3.4.3.3.3.[ -.9.K Q 7.4.v ) q.C U +.z ,.,.k o.7.%.N ;.6.) -.3.2.4.1.3.3.3.4.5.s                 ",
"              6 4.4.1.2.3.3.3.3.4.:.1.3.7.Q ) w.U N 6.3.l U 9.j S { y -.+.q o.q.^ l 2.<.C ;.4.2.,.4.3.3.1.1.3.3.8               ",
"            @ ;.5.1.4.1.3.3.3.1.4.-.) 4.7./ P 9.W q -.6.u b 7.u B ) 7 =./ 5 X.9.v v 7.[ k 4.6.o.[ 5.1.4.3.3.1.4.;.@   .         ",
"          . ' 7.1.2.1.4.3.3.4.4.3.2.H +.9.{ l 1.{ : / 7.u u >.r x R 7 *.H 5 #.>.2 P w.V C 7.6.H @.4.2.4.3.3.3.1.7.) .           ",
"          B 9.1.1.2.4.1.1.4.#.$.3.7.U C 7.-.u [ -.< S 6.j 7 o.p l J q @.h y -.^ = ^ 2.4 E w.) k 2.4.1.X.1.3.3.3.1.7.B           ",
"        * ,.4.1.3.1.1.4.1.4.-.K 1.7.[ 2 o.4.g S 1.q u -.V < ] j g v u  .q g -.x 1 o._ < o.6.i J 4.7.Q ^ 7.1.3.3.3.4.,.*         ",
"        ^ 7.1.3.3.3.3.1.3.3.7.J P 7.;.q M 7.H u -.b > | U % ~ v t u g ^ : c #.2 i -.v t 4.W 2 _ 9.{ g 1.3.2.1.3.3.1.7.^         ",
"      6 5.3.3.3.3.3.6.%.) 3.4.$.e ) q.C < .._ 5 _ R = I R % P v 7 2 k K = D ! & B X.: H :.q g :.<.e E 4.6.+.[ 6.1.3.1.5.8       ",
"      _ 7.1.3.3.3.2.1.7.U ) 7.7.V u ;.X.: m #.y B ^ : M W : c a 2 1 z z : T b & ~ J + ..K = T 7.v y -.7.%.V -.6.3.3.1.7._       ",
"    - 5.3.3.3.3.1.-.3.4.#.u  .7.X.2 Z 2.j 1 ) G 7 ^ 3 u T 2 d 2 2 1 d 1 5 T e 2 ^ 4 u  ., y -.^ + W 7.<.g E 6.3.1.-.3.3.4.-   . ",
"    Y 9.1.3.3.3.4.) $.6.7.Y q o.9.V 1 / ) % M W 3 D a 3 P q y 1 2 1 d : y H : l S + Y n % P o.< i ;.4.j g 1.3.6./ %.4.1.9.I     ",
"  o &.4.1.3.3.1.3.-.H *.7.,.u u =.-.1 d ] r 5 U f d u > M q y 1 1 1 d : d j & m 3 3 U : t | u % ( 7.k 5 X.6.7.R ^ 7.1.3.6.%.o   ",
"  0 7.1.3.3.3.4.3.7.{ j X.0.X.: z :.U = Z J : m v t y ; l 2 q 2 < 1 l > d , 2 i + x u + J C O M <.V < E 6.2.H C 4.4.3.3.3.7.0   ",
"  P 9.1.3.1.4.,.;.3.7.) y ) 0.Y + Z *.r t S 2 y z 7 d = s 3 5 2 = > d 2 i = y q : g + i C ; 5 X.K % Z 3.;.m x 1.6.3.;.3.1.9.P   ",
". ..7.1.3.3.3.3.] X.6.7.Q 1 T 6.x + P ^ : l t : l 2 a > t y 1 7 = > i 5 y & s 1 7 : 1 z : : T R = l *.*.i p :.9.;.^ %.4.1.7.{ . ",
"# ;.4.3.3.3.3.3.3.W T 1.0.R : H $.q = T b 2 l : t u 7 7 1 u 1 q & 1 u 6 y > i : q + s 2 O N T : i  ._ q p ;.9. .H $.6.3.3.4.;.# ",
"0 4.1.3.3.3.1.4.4.4.R x X.q.Y % B ) , 5 I 7 y i > d 6 t : s > q + 1 y 7 5 5 y 5 1 2 y O u J 2 y ~ ^ 2 q :.4.U m %.4.3.3.1.3.4.0 ",
"c 7.1.3.3.3.-.X.4.6.7.W y W 7.K + m J : i x > d 2 t y 7 > y 2 0 = 2 9 y 1 y 7 q = a = 5 m 2 q F U 1 e -.-.x k -.7.7.$.X.3.1.5.c ",
"I 8.1.3.3.3.4.X.Y +.7.9._ 5 N -.Y + l g + d 3 2 l > y 7 2 7 7 7 = 2 7 t 2 u 7 1 7 2 = d < 5 m N 1 y -.( 9 v 3.9.,.! Q 1.4.1.7.I ",
"! 7.3.3.3.3.1.7.#.N H *.0.+.q t ] Y = i 7 + a : y y 7 y 2 6 7 7 : 3 t 0 5 u 7 1 y = i 1 5 l l : u  .S < P 9.4.) x W 4.4.1.1.7.^ ",
"' 4.3.3.3.3.3.3.4.1.G q P ,.;.j < U U : y 7 : r = d 7 y 3 1 7 7 > 1 y 7 7 y 5 7 : 7 q 5 z l < f / i < ) 6._ g p { 7.1.3.2.1.5.' ",
"} 7.3.3.3.3.,.3.5.4.7.) q q ~ -.G : m V : t 2 : 7 2 a 7 7 > 7 7 > 2 y 7 y t 5 5 2 y 2 l i : u J 5 e  ...x 1 V ,.7.6.6.,.1.1.7.} ",
"} 6.3.3.3.3.;. .] $.4.q.1.V = u / Y 3 y z & 7 2 1 3 7 y w 1 2 7 > 2 y 7 y 7 2 > y 7 l y & t z , k ` A : y ) w.7.:.} _ -.3.1.4.} ",
"' 4.1.3.3.3.3.2.X.Y S Q -.7.X.g = l J t 2 s > 2 3 1 1 t w 6 = 7 > 3 y y y 7 > y 9 l y = t y > b D 2 > Y 4.2. .U H ) -.4.3.3.6.[ ",
") 4.3.3.3.3.3.3.4.4.X.C i x _ *.W w 1 g 7 > y 2 1 3 1 3 0 9 1 2 > 3 7 y q 1 6 q d 7 = y 3 > s t > n O.@.J i k ^ ;.6.4.3.3.3.7.^ ",
"I 7.3.3.3.3.3.4.4.7.7.7.o.S 4 y D W V 3 2 q > 3 7 2 1 , 3 s 3 1 2 6 y y 2 2 y d 7 2 7 > 3 7 2 f R T z 2 j ) :.7.7.4.4.2.3.1.7.U ",
"M 7.1.2.3.3.;.X. .X.-.<.7.w.;.Y t , d M y > 1 1 > 7 7 6 2 7 9 1 1 7 u q 1 t u 7 3 5 > 2 > 2 x m t 1 b ..7.q.4.-.+. . .$.1.1.7.x ",
"y 4.2.1.3.3.3.,.+.) U H H E  .-.&.) k 4 q r 7 2 = = 1 7 7 2 9 3 < 7 y 5 q u 7 2 < = > 5 t y 3 r J @.<.@.^ J H J W { -.1.3.3.4.0 ",
"# ;.4.3.3.3.3.4.4.7.3.#.^ C g q i B Y P z 2 , 7 7 2 = = 1 7 7 7 1 q 7 7 y 7 = = > 5 7 3 1 t C Y J z y r x E { :.6.6.4.3.1.4.>.# ",
". { 7.1.3.3.3.3.4.4.7.8.q.9.3.+.W n r q y q 5 1 > 1 1 > = > 3 9 7 7 q q 1 = = 1 1 > > 3 q t q q j J ] ;.7.q.9.7.6.4.4.2.1.7.} . ",
"  P 7.1.2.3.3.<.%.+.X.X.X. .X.o.#.#. .Q J h q 2 2 < : : = & & > 7 7 5 = & = = = > > 5 7 u N R ] o.#.#.o.X. .X.X.o.#.-.2.1.7.P   ",
"  0 7.2.1.3.3.1.#.{ _ W P C x g y 9 e q t y q q 5 1 1 < = = = & + = + = & = = 1 2 2 7 7 y y y q q q u k M H T / ] o.-.1.1.7.0   ",
"  o &.6.2.3.3.3.6.6.6.6.6.6.4.2.,.-.X.] W P b y 1 2 1 1 1 1 = ; r 7 7 + > 2 2 1 2 1 6 g C R ^ } #.;.<.4.6.6.6.7.6.4.4.3.4.&.X   ",
"    Y 9.1.3.3.3.3.4.4.4.2.;.%.X._ T S x g a a j M v i q 2 1 : b W g _ : 2 > 7 q l b k j u d k N P ^ [ +.-.1.3.6.6.3.3.1.9.I   . ",
"    - 4.1.3.3.3.:.$. .^ R U S V C H K W ] O.X.W B i u , 2 C x <.! t 8.Y b j : q i k U ] o...! R H S C C H Y ^ _ X.-.1.3.4.-     ",
"      _ 7.1.3.3.;.%.%.-.-.;.1.6.7.q.w.4...J g u n G u f ] C } 9.W y 4.4.J ! I 7 v H g u N ^ -.9.w.7.7.3.1.;.-.#.-.-.<.7.)       ",
"      8 5.1.3.3.3.4.6.4.6.4.6.3.,. .Y b x J ' -.E j K 1.L _ 7.7.W y 1.4.>.C +.X.k B o.#.E N x S ) *.3.6.3.4.6.4.3.6.3.5.8       ",
"        Q 7.1.3.3.3.1.2.2.;.$.] ^ W ] #.3.0.@.N n +.q.R / 9.1.9.W y 2.1.5.,.G ;.7.R k W 4.0.;.X.^ E / X.-.1.1.1.3.1.9.^         ",
"        * ,.4.3.3.3.3.3.;.-.*.-.1.7.7.7.;.E H { 7.9.Q ) 7.1.1.7.E u 3.3.3.4.-.K -.w.-.E H  .6.7.7.4.;.-.$.-.,.3.1.3.1.$         ",
"          B q.1.3.3.3.3.3.3.6.2.3.1.<.X.^ X.4.7.6.) ) 7.3.3.1.7.E u 3.3.3.1.7.-.R ;.4.7.-.( ) ;.3.1.4.3.4.4.3.3.1.9.B           ",
"          . ) 7.,.3.3.3.3.3.3.3.3.3.-.$.4.7.1.3.+...7.1.3.3.3.7.W u 3.3.3.3.1.4.;._ 1.3.4.7.;.#.1.3.3.3.1.4.3.1.7.) .           ",
"            # ;.4.3.3.3.3.3.3.3.3.3.3.4.3.3.3.;.#.4.4.1.3.3.1.7.W y 3.3.3.3.3.3.5.:.#.3.3.2.4.4.3.3.3.3.3.3.1.4.&.#             ",
"              8 3.4.1.3.3.3.3.3.3.3.3.1.3.3.3.1.4.3.3.3.3.3.3.7.W y 3.3.3.3.3.3.3.4.3.3.3.3.3.3.3.3.3.3.3.1.4.3.8               ",
"                s 5.2.1.3.3.3.3.3.3.3.3.3.3.3.3.3.3.3.3.3.3.3.8.W y 3.3.3.3.3.3.3.3.3.3.3.3.3.3.3.3.3.3.1.2.5.d                 ",
"                  z 5.3.1.3.3.3.3.3.3.3.3.3.3.3.3.3.3.3.3.3.1.9.W u 3.3.3.3.3.3.3.3.3.3.3.3.3.3.3.3.3.1.3.7.z                   ",
"                    i 3.4.1.3.3.3.3.3.3.3.3.3.3.3.3.3.3.3.3.1.8.T q 3.4.3.3.3.3.3.3.3.3.3.3.3.3.3.3.1.4.3.i                     ",
"                      8 >.5.1.1.3.3.3.3.3.3.3.3.3.3.3.3.3.3.2.4.#._ 3.3.3.3.3.3.3.3.3.3.3.3.3.3.3.1.8.&.8                       ",
"                        # ` 9.4.1.3.3.2.3.3.3.3.3.3.3.3.3.3.1.1.4.7.3.3.3.3.3.3.1.4.3.3.3.3.3.1.3.q.] @                         ",
"                          . N ,.7.3.1.3.3.3.3.3.3.3.3.3.3.3.1.4.1.1.3.3.3.3.3.3.3.3.3.1.3.1.1.7.;.N .                           ",
"                              * ^ 5.7.3.1.1.3.3.3.3.3.3.3.3.4.1.3.3.3.3.3.3.3.3.1.4.1.1.2.7.5.^ #   .                           ",
"                                  8 _ 5.9.4.1.1.1.1.1.4.2.1.1.4.3.3.3.3.3.3.1.1.1.1.6.9.5._ 6 .                                 ",
"                                      - Y &.7.0.7.4.2.1.1.1.1.3.1.3.1.3.1.3.4.7.9.7.%.Y -                                       ",
"                                  .       X 0 I ..>.4.5.9.7.5.7.4.5.8.8.5.4.>.X.I 0 X                                           ",
"                                                . * y M Y ^ ' } } [ / Y M 0 # .       .                                         "
};
