/* XPM */
static char *_ac96339d0cc4213f53dd52b98d9811bFw3dGUcY7T3Iatez[] = {
/* columns rows colors chars-per-pixel */
"16 16 243 2 ",
"   c black",
".  c #010100",
"X  c #020202",
"o  c #1D2518",
"O  c #627B51",
"+  c #8DB175",
"@  c #9FC784",
"#  c #9FC784",
"$  c #8DB175",
"%  c #617B51",
"&  c #1D2518",
"*  c #020202",
"=  c #010101",
"-  c #010100",
";  c #010101",
":  c #020302",
">  c #566D47",
",  c #A5CF8A",
"<  c #B1DD95",
"1  c #ADD791",
"2  c #AAD38E",
"3  c #AAD38F",
"4  c #ACD691",
"5  c #B2DD95",
"6  c #A6D08B",
"7  c #566D47",
"8  c #020301",
"9  c #010101",
"0  c #010100",
"q  c black",
"w  c #010201",
"e  c #72905E",
"r  c #B8E59A",
"t  c #A9D28E",
"y  c #99C180",
"u  c #90B677",
"i  c #87AD6F",
"p  c #80A569",
"a  c #8EB475",
"s  c #90B678",
"d  c #A2CB88",
"f  c #B9E69B",
"g  c #72905F",
"h  c #010201",
"j  c black",
"k  c #587049",
"l  c #B8E59A",
"z  c #A1C987",
"x  c #91B878",
"c  c #7CA166",
"v  c #6B8D56",
"b  c #5D7F49",
"n  c #567643",
"m  c #678952",
"M  c #6D9158",
"N  c #82A86B",
"B  c #97BD7E",
"V  c #B8E59A",
"C  c #587049",
"Z  c #1F2819",
"A  c #A5CF8A",
"S  c #A4CD8A",
"D  c #8EB475",
"F  c #71945B",
"G  c #60824D",
"H  c #567643",
"J  c #466535",
"K  c #3C592C",
"L  c #4E6D3C",
"P  c #577743",
"I  c #63854F",
"U  c #7BA065",
"Y  c #99C180",
"T  c #A5CE8A",
"R  c #1F2719",
"E  c #627C52",
"W  c #B1DC94",
"Q  c #94BB7B",
"!  c #769A60",
"~  c #5F804B",
"^  c #496737",
"/  c #3F5D2F",
"(  c #334F23",
")  c #2F4B20",
"_  c #385527",
"`  c #3B592A",
"'  c #4C6D3B",
"]  c #688B54",
"[  c #81A66A",
"{  c #A9D48E",
"}  c #647E53",
"|  c #8EB276",
" . c #AAD38E",
".. c #90B778",
"X. c #6E9158",
"o. c #4B6B39",
"O. c #3B582B",
"+. c #344F25",
"@. c #2E4B1F",
"#. c #304C20",
"$. c #324E23",
"%. c #2C481C",
"&. c #425F31",
"*. c #5C7D49",
"=. c #7BA065",
"-. c #9FC985",
";. c #8EB276",
":. c #9FC884",
">. c #A6CF8C",
",. c #89B071",
"<. c #6B8E56",
"1. c #486736",
"2. c #304C20",
"3. c #355125",
"4. c #2F4A1F",
"5. c #314C21",
"6. c #334E23",
"7. c #324D22",
"8. c #3D5A2D",
"9. c #567743",
"0. c #759A60",
"q. c #98C07F",
"w. c #A0C885",
"e. c #9FC784",
"r. c #A7D08C",
"t. c #91B778",
"y. c #6D8F57",
"u. c #486737",
"i. c #2F4B1E",
"p. c #304C20",
"a. c #314C20",
"s. c #324E22",
"d. c #365226",
"f. c #345024",
"g. c #355225",
"h. c #557642",
"j. c #7A9F64",
"k. c #9DC584",
"l. c #9FC884",
"z. c #8EB276",
"x. c #AAD48F",
"c. c #96BD7D",
"v. c #7DA267",
"b. c #567643",
"n. c #304D20",
"m. c #294419",
"M. c #2D481D",
"N. c #2F4B20",
"B. c #2F4B1F",
"V. c #284318",
"C. c #3C592B",
"Z. c #678952",
"A. c #87AD70",
"S. c #A2CB88",
"D. c #8EB276",
"F. c #627C52",
"G. c #B0DB94",
"H. c #99C07F",
"J. c #85AB6E",
"K. c #6A8D55",
"L. c #486736",
"P. c #29451A",
"I. c #294418",
"U. c #375425",
"Y. c #223E12",
"T. c #345024",
"R. c #557642",
"E. c #769A60",
"W. c #8CB274",
"Q. c #AAD58F",
"!. c #637D52",
"~. c #1F2819",
"^. c #A5CF8A",
"/. c #A2CA88",
"(. c #96BD7D",
"). c #88AD70",
"_. c #73965D",
"`. c #5F814B",
"'. c #7BA063",
"]. c #84A86C",
"[. c #6F9259",
"{. c #62844E",
"}. c #7CA065",
"|. c #8DB475",
" X c #9BC382",
".X c #A2CC88",
"XX c #1F2819",
"oX c #587049",
"OX c #B8E59A",
"+X c #A2CA88",
"@X c #A1C987",
"#X c #9AC281",
"$X c #A0C985",
"%X c #A2CA87",
"&X c #85AA6E",
"*X c #ABD48F",
"=X c #99C280",
"-X c #9CC483",
";X c #A0C786",
":X c #B7E499",
">X c #597049",
",X c black",
"<X c #010201",
"1X c #72905E",
"2X c #B8E59A",
"3X c #A8D18D",
"4X c #A6CE8B",
"5X c #A8D18D",
"6X c #9FC684",
"7X c #83A86B",
"8X c #AAD38E",
"9X c #A4CD8A",
"0X c #A9D28E",
"qX c #B8E59A",
"wX c #72905F",
"eX c #010201",
"rX c black",
"tX c #010101",
"yX c #020302",
"uX c #566D47",
"iX c #A5CF8A",
"pX c #B0DB93",
"aX c #ABD590",
"sX c #A7D08C",
"dX c #A4CD89",
"fX c #ACD690",
"gX c #B0DB93",
"hX c #A5CE8A",
"jX c #566D47",
"kX c #020301",
"lX c #010101",
"zX c #020202",
"xX c #1D2518",
"cX c #627C51",
"vX c #8DB176",
"bX c #9FC884",
"nX c #A0C985",
"mX c #8DB176",
"MX c #627C52",
"NX c #1D2518",
"BX c #020202",
"VX c #010101",
"CX c white",
/* pixels */
"  . X   o O + @ # $ % &   * =   ",
"- ; : > , < 1 2 3 4 5 6 7 8 9 0 ",
"q w e r t y u i p a s d f g h j ",
"  k l z x c v b n m M N B V C   ",
"Z A S D F G H J K L P I U Y T R ",
"E W Q ! ~ ^ / ( ) _ ` ' ] [ { } ",
"|  ...X.o.O.+.@.#.$.%.&.*.=.-.;.",
":.>.,.<.1.2.3.4.5.6.7.8.9.0.q.w.",
"e.r.t.y.u.i.p.a.s.d.f.g.h.j.k.l.",
"z.x.c.v.b.n.m.M.N.B.V.C.Z.A.S.D.",
"F.G.H.J.K.L.P.I.U.Y.T.R.E.W.Q.!.",
"~.^./.(.)._.`.'.].[.{.}.|. X.XXX",
"  oXOX+X@X#X$X%X&X*X=X-X;X:X>X  ",
",X<X1X2X3X4X5X6X7X8X9X0XqXwXeXrX",
"- tXyXuXiXpXaXsXdXfXgXhXjXkXlX0 ",
"  . zX  xXcXvXbXnXmXMXNX  BXVX  "
};
