/* XPM */
static char *_ca97224ba1d4aefb3fc533647cd04a3OFZC81VKQnl2dbp4[] = {
/* columns rows colors chars-per-pixel */
"32 32 72 1 ",
"  c #000100",
". c #060A05",
"X c #0D120A",
"o c #10160C",
"O c #13190E",
"+ c #203D0F",
"@ c #223D12",
"# c #2F3D26",
"$ c #264116",
"% c #2A451A",
"& c #2D491E",
"* c #32501F",
"= c #324D22",
"- c #355226",
"; c #395827",
": c #375328",
"> c #39552A",
", c #3D5B2C",
"< c #405D2E",
"1 c #415E31",
"2 c #465B39",
"3 c #446233",
"4 c #486736",
"5 c #476836",
"6 c #496837",
"7 c #4C6C3A",
"8 c #506F3D",
"9 c #51713E",
"0 c #546B44",
"q c #547442",
"w c #577844",
"e c #5A7A46",
"r c #5B744A",
"t c #5D7E49",
"y c #5F814A",
"u c #62834D",
"i c #648651",
"p c #678952",
"a c #6A8C55",
"s c #6D8E58",
"d c #6D9157",
"f c #6E9159",
"g c #72955C",
"h c #74995F",
"j c #769660",
"k c #779C62",
"l c #7B9D64",
"z c #7DA266",
"x c #7FA469",
"c c #81A66A",
"v c #85AA6D",
"b c #87AE70",
"n c #89AE71",
"m c #8DB374",
"M c #8FB578",
"N c #90B577",
"B c #91B779",
"V c #95BC7C",
"C c #98BF7F",
"Z c #97C07E",
"A c #99C27E",
"S c #98BF80",
"D c #9CC583",
"F c #9FC886",
"G c #A1C987",
"H c #A5CD8A",
"J c #A7D08C",
"K c #A9D38E",
"L c #ACD691",
"P c #AED992",
"I c #B2DD95",
"U c #B4E097",
/* pixels */
"          .#rlNAABlr#.          ",
"        o0NKIPLJKKPIKN0o        ",
"       2DULHHJJHHJHHJLUD2       ",
"     XjUJHJJJJJJJJJJJJHKIjX     ",
"    OmIHKJJHVGNDnVBGSGJHHInO    ",
"   XmIHHHKBAhCgcuchVkBmKHHImX   ",
"   jIHHKGmBcuvea8ftnuccCVLHIk   ",
"  2IHJLmHpmfupwe3tqatpnpGmHHI2  ",
" oDKJGHmlhiatq98-99qttaavlLSLDX ",
" 0UHGKdGth7uq48:=:550e6k9GsGGI0 ",
".NLJZNVwv7w77,1=&=,;<3q5zybDmIM.",
"#KJHKzcgwy3,1=:&%>==-;,qtpngHGL#",
"rIHJmSgu9q3=:==&%:==%=>qqgyDbHPr",
"lLJDHxzp7,3-:-=&%-==&%,5qwxjHDLl",
"mKJGzNluw;&=:-&=%=:=&=,,7ifBxZLm",
"ALJHHhpp94=&=:&=&-:&=>>,qyaaDJJD",
"AJJGnmle91-&&==&&:-&;:=,7egmnDJA",
"NLHJHmkp9<&&&&-&&:&:-&&;7ugcGJLm",
"lLJDmnvgt4=&%&=&&::=%&=3escmnDLl",
"rIHJJDnkpq,&&@%==-&$%&-7ijvVHJPr",
"#KJHVmvlft6=%$++$@+$%&3walcmBGL#",
".mLJHGVnhue7,*$*7;$&,3wufcVDHLM.",
" 0UHGBnnncgu9<9nsmt35isxbbnMDU0 ",
" XDLJJJGNvchdcnItFVxhdccmDJJJDX ",
"  2UHJGDGHmNDNKJtDPBASmDGDGGI2  ",
"   jIHJJJGHKCJKKtDLJVHJDHLHIj   ",
"   XnIHJJJJHKHHKuDJJLHJLJHImX   ",
"    OmIHJJJJHKKJtDLJJHHHHInO    ",
"     XjUKHJJJJJJSHJJJJHLUjX     ",
"       2DILJHJJJLJHHHLUD2       ",
"        o0NKILLJJLPILm0o        ",
"          .#rlNACNlr#.          "
};
